<?xml version="1.0" encoding="utf-8"?>
<!-- Generator: Adobe Illustrator 26.3.1, SVG Export Plug-In . SVG Version: 6.00 Build 0)  -->
<svg version="1.1" id="Layer_1" xmlns="http://www.w3.org/2000/svg" xmlns:xlink="http://www.w3.org/1999/xlink" x="0px" y="0px"
	 viewBox="0 0 584.8 600" style="enable-background:new 0 0 584.8 600;" xml:space="preserve">
<style type="text/css">
	.st0{fill:#FFC107;}
	.st1{display:none;}
	.st2{display:inline;opacity:0;}
	.st3{fill:#1A1A1A;}
	.st4{fill:#FFFFFF;}
	.st5{fill-opacity:0;stroke:#1A1A1A;stroke-width:2;stroke-linecap:round;stroke-linejoin:round;}
	.st6{display:inline;}
	.st7{fill-opacity:0;stroke:#1A1A1A;stroke-width:2;}
	.st8{fill-opacity:0;stroke:#FDCE2E;stroke-width:2;stroke-linejoin:round;}
	.st9{fill-opacity:0;stroke:#1A1A1A;stroke-width:2;stroke-miterlimit:10;}
</style>
<g transform="matrix(1,0,0,1,66.2139892578125,88.4010009765625)">
	<g transform="matrix(1,0,0,1,310.8219909667969,259.5379943847656)">
		<path class="st0" d="M-207.2,225.6c-164.9-26.9-211-197.6-109.4-300.3c92.5-93.6,44.5-166.5,196.3-176.1
			C14.1-259.3,148-148.9,175.5,41.5C203,231.4-0.4,259.3-207.2,225.6z"/>
	</g>
</g>
<g transform="matrix(1,0,0,1,172.4829864501953,44.96299743652344)" class="st1">
	<g transform="matrix(1,0,0,1,11.32800006866455,66.18699645996094)" class="st2">
		<path class="st3" d="M-219.6-2.7l23.8-8.6l-16.4-35.2l-16.2,8.8L-219.6-2.7z"/>
	</g>
	<g transform="matrix(1,0,0,1,310.0539855957031,239.56700134277344)" class="st2">
		<path class="st4" d="M-101.9,33.9l-15.7,10.8l15,23.3l15.4-9.1L-101.9,33.9z"/>
		<path class="st5" d="M-101.9,33.9l-15.7,10.8l15,23.3l15.4-9.1L-101.9,33.9z"/>
	</g>
	<g transform="matrix(1,0,0,1,24.444000244140625,138.41700744628906)" class="st2">
		<path class="st4" d="M-167.4,59.9l-9.9,2.5l2.6,15l13.9-1.6L-167.4,59.9z"/>
		<path class="st5" d="M-167.4,59.9l-9.9,2.5l2.6,15l13.9-1.6L-167.4,59.9z"/>
	</g>
	<g transform="matrix(1,0,0,1,83.61699676513672,120.21900177001953)" class="st2">
		<path class="st3" d="M-209,32l-13,6.6l-15.5-16.1l9.7-7.4L-209,32z"/>
	</g>
	<g transform="matrix(1,0,0,1,332.947998046875,205.2989959716797)" class="st2">
		<path class="st3" d="M-67.9,20.5L-93.2,48l6.6,5.4L-105,72.6l9,6.6l24.8-28.7l-7.2-5.1l16.5-20.2L-67.9,20.5z"/>
	</g>
	<g transform="matrix(1,0,0,1,437.614990234375,43.70600128173828)" class="st2">
		<path class="st3" d="M0.8-21.5L-10-18.3L-12.3-61l20.9-2.2L0.8-21.5z"/>
	</g>
	<g transform="matrix(1,0,0,1,370.2900085449219,6.394999980926514)" class="st2">
		<path class="st3" d="M-74.1-19.5l-5.6-15.7l13.8-10.6l13.6,19.1L-74.1-19.5z"/>
	</g>
	<g transform="matrix(1,0,0,1,204.38299560546875,179.77499389648438)" class="st2">
		<path class="st3" d="M-165.5,59.4l-3.7-13.5l28.8-10.4l-0.6,12.8L-165.5,59.4z"/>
	</g>
	<g transform="matrix(1,0,0,1,468.9880065917969,131.56300354003906)" class="st2">
		<path class="st3" d="M-23.4,28.7l26.2-5.9l-2.3-5.3l23.8-10l-12.2-17L-18,6l3.2,5.4l-13.8,4.3L-23.4,28.7z"/>
	</g>
</g>
<g transform="matrix(1,0,0,1,613.217041015625,284.0220031738281)" class="st1">
	<g transform="matrix(1,0,0,1,15.182000160217285,36.60300064086914)" class="st6">
		<path class="st5" d="M-107.6,0"/>
	</g>
</g>
<g transform="matrix(1,0,0,1,607.9929809570312,215.30999755859375)" class="st1">
	
		<g transform="matrix(0.999944269657135,0.01055904570966959,-0.01055904570966959,0.999944269657135,23.327999114990234,32.94499969482422)" class="st6">
		<path class="st5" d="M-107.6,1.1"/>
	</g>
</g>
<g transform="matrix(1,0,0,1,228.54598999023438,65.28800201416016)" class="st1">
	<g transform="matrix(1,0,0,1,39.770999908447266,30.93000030517578)" class="st6">
		<path class="st5" d="M-107.6,0"/>
	</g>
</g>
<g transform="matrix(0.9848077297210693,-0.1736481785774231,0.1736481785774231,0.9848077297210693,270.41534423828125,15.151439666748047)">
	<g transform="matrix(1,0,0,1,84.61199951171875,92.04000091552734)">
		<path class="st3" d="M-46-15.6c-6.6,0-12.7,3.9-16.4,10.2l4-51.5c0-0.5-0.3-0.9-0.8-0.9l-47.4-4.9c7.1-3.2,12-9.4,12.8-16.6
			c0.7-5.8-1.2-11.6-5.4-16.3c-4.2-4.7-10.1-7.7-16.6-8.5c-13.6-1.7-25.9,6.7-27.3,18.7c-0.9,7.6,2.6,15,9.2,19.8l-43.6-4.5
			c-0.2,0-0.5,0.1-0.6,0.2c-0.2,0.1-0.3,0.4-0.3,0.6l-7.9,126.6c0,0.5,0.3,0.9,0.8,0.9L-69,68.4h0.1c0.2,0,0.4-0.1,0.6-0.2
			c0.2-0.2,0.3-0.4,0.3-0.6l3.7-47.7C-61,28.4-54,34.1-46,34.1c11.2,0,20.3-11.1,20.3-24.8C-25.6-4.5-34.7-15.6-46-15.6z"/>
	</g>
	<g transform="matrix(1,0,0,1,63.249000549316406,104.67500305175781)">
		<path class="st0" d="M-106-29.2c5.8,0,10.5,4.7,10.5,10.5c0,5.8-4.7,10.5-10.5,10.5c-5.8,0-10.5-4.7-10.5-10.5
			S-111.8-29.2-106-29.2z"/>
	</g>
	<g transform="matrix(1,0,0,1,70.89199829101562,70.81700134277344)">
		<path class="st4" d="M-47.2-27.6c-4,1.7-8.2,3.1-12.4,4.3c-13.2,3.7-27.7,5.1-42.8,4.2c-28.3-1.8-51-11-61.4-16l-1.1,17.5
			c13,5.6,35.1,13.2,61.4,14.8c3.4,0.2,6.8,0.3,10.1,0.3C-80-2.3-67.2-4-55.1-7.4c2.3-0.6,4.5-1.3,6.7-2.1L-47.2-27.6z"/>
	</g>
	<g transform="matrix(1,0,0,1,95.822998046875,146.86000061035156)">
		<path class="st4" d="M-75.6-35c3.3,8.6,10.4,14.2,18.4,14.2c9.5,0,17.5-8,19.7-18.7c-14.5-6.1-33-9.7-53.3-9.7
			c-46.3,0-83.8,19.2-83.8,42.8c0,3.5,0.9,7,2.4,10.3l92,8l0.9,0.1L-75.6-35z"/>
	</g>
	<g transform="matrix(1,0,0,1,84.99500274658203,91.63300323486328)">
		<path class="st5" d="M-46.2-15.6c-6.5,0-12.6,3.9-16.4,10.2l4-51.2c0-0.5-0.3-0.9-0.8-0.9l-47.2-4.9c7-3.2,11.9-9.4,12.8-16.5
			c0.7-5.8-1.2-11.6-5.3-16.2c-4.1-4.6-10-7.6-16.5-8.4c-13.5-1.7-25.7,6.7-27.2,18.6c-0.9,7.5,2.6,14.9,9.2,19.7l-43.4-4.5
			c-0.2,0-0.5,0.1-0.6,0.2c-0.2,0.1-0.3,0.4-0.3,0.6l-7.9,126c0,0.5,0.3,0.9,0.8,0.9l116,10.1h0.1c0.2,0,0.4-0.1,0.6-0.2
			c0.2-0.2,0.3-0.4,0.3-0.6l3.7-47.5c3.3,8.5,10.3,14.1,18.3,14.1C-35.1,33.8-26,22.7-26,9.1S-35.1-15.6-46.2-15.6z"/>
	</g>
</g>
<g transform="matrix(0.9743700623512268,0.22495105862617493,-0.22495105862617493,0.9743700623512268,534.5407104492188,95.38632202148438)">
	<g transform="matrix(1,0,0,1,82.44400024414062,71.86900329589844)">
		<path class="st0" d="M-47,3.4c-6.3,0-11.9,3.7-15.5,9.3l3.8-44.3l-46.9-4.5c7.9,4.3,12.8,12.3,11.8,20.9
			c-1.4,11.6-13.3,19.7-26.6,18c-13.2-1.6-22.8-12.3-21.4-24c1-8.1,7.1-14.4,15.1-17l-45.9-4.4v0l-4,51.9c3.8-6.4,10-10.3,16.6-10.3
			c11.3,0,20.5,11.2,20.5,25s-9.2,25-20.5,25c-8.1,0-15.2-5.7-18.6-14.3l-3.7,48.1c0,0,0,0,0,0l113,8.4l4.6-53.1
			c3.2,8.1,9.9,13.6,17.7,13.6c10.8,0,19.6-10.8,19.6-24.1C-27.4,14.2-36.2,3.4-47,3.4z"/>
	</g>
	<g transform="matrix(1,0,0,1,95.19200134277344,67.91200256347656)">
		<path class="st4" d="M-133.5,47.1c-0.2,0-0.4-0.1-0.6-0.2c-0.4-0.3-0.4-0.9-0.1-1.2c15.7-18.9,35.1-33.7,57.7-44.2
			c0.4-0.2,1,0,1.2,0.4c0.2,0.4,0,1-0.4,1.2c-22.4,10.3-41.6,25-57,43.7C-133,47-133.3,47.1-133.5,47.1z"/>
	</g>
	<g transform="matrix(1,0,0,1,31.573999404907227,18.82900047302246)">
		<path class="st4" d="M-123.7,36.1c13.6-4.9,26.3-12,37.7-21.4l-25.4-2.5c-3.5,2-7.2,3.8-10.9,5.4L-123.7,36.1z"/>
	</g>
	<g transform="matrix(1,0,0,1,97.49600219726562,93.36299896240234)">
		<path class="st4" d="M-104.9,17.7c3.6,0,6.5,2.9,6.5,6.5s-2.9,6.5-6.5,6.5c-3.6,0-6.5-2.9-6.5-6.5S-108.5,17.7-104.9,17.7z"/>
	</g>
	<g transform="matrix(1,0,0,1,41.518001556396484,105.85099792480469)">
		<path class="st4" d="M-99.2-3.9C-101.5,6.9-109.5,15-119.1,15c-8.1,0-15.2-5.7-18.6-14.3l-3.7,47.2l60,4.4
			c8.2-6.6,12.9-14.5,12.9-22.9C-68.4,16-80.4,4-99.2-3.9z"/>
	</g>
	<g transform="matrix(1,0,0,1,82.44400024414062,71.86900329589844)">
		<path class="st5" d="M-47,3.4c-6.3,0-11.9,3.7-15.5,9.3l3.8-44.3l-46.9-4.5c7.9,4.3,12.8,12.3,11.8,20.9
			c-1.4,11.6-13.3,19.7-26.6,18c-13.2-1.6-22.8-12.3-21.4-24c1-8.1,7.1-14.4,15.1-17l-45.9-4.4v0l-4,51.9c3.8-6.4,10-10.3,16.6-10.3
			c11.3,0,20.5,11.2,20.5,25s-9.2,25-20.5,25c-8.1,0-15.2-5.7-18.6-14.3l-3.7,48.1c0,0,0,0,0,0l113,8.4l4.6-53.1
			c3.2,8.1,9.9,13.6,17.7,13.6c10.8,0,19.6-10.8,19.6-24.1C-27.4,14.2-36.2,3.4-47,3.4z"/>
	</g>
	<g transform="matrix(1,0,0,1,53.922000885009766,111.3239974975586)">
		<path class="st3" d="M-117.4,46.6c-0.1,0-0.2,0-0.3,0c-0.5-0.1-0.7-0.7-0.6-1.1c0-0.1,3.5-11.1,12.7-25.7
			c3.8-6.1,8-11.9,12.6-17.5c0.3-0.4,0.9-0.4,1.2-0.1c0.4,0.3,0.4,0.9,0.1,1.2c-4.5,5.5-8.7,11.3-12.5,17.3
			c-9,14.4-12.5,25.2-12.5,25.3C-116.7,46.4-117,46.6-117.4,46.6z"/>
	</g>
</g>
<g transform="matrix(1,0,0,1,122.26901245117188,368.4230041503906)">
	<g transform="matrix(1,0,0,1,190.24400329589844,97.7750015258789)">
		<path class="st3" d="M74.7,60.9C46.8,26-36.8-20.3-87-43c-50.2-22.7-123.3-54.6-184.9-52.5c-25.8,1.6-23,24.2-15.4,34.1
			c37.1,48.5,111.5,81.2,161.7,103.9S1.1,97.5,53.6,95.2C81.2,93.9,82.4,70.8,74.7,60.9z"/>
	</g>
</g>
<g transform="matrix(1,0,0,1,196.2639923095703,223.531005859375)">
	<g transform="matrix(1,0,0,1,16.388999938964844,43.84400177001953)">
		<path class="st5" d="M-121.2-41.7c0,0-20,32.8-16.8,80.1"/>
	</g>
	<g transform="matrix(1,0,0,1,372.09698486328125,112.40599822998047)">
		<path class="st5" d="M-55.3-28.7c0,0-4.8,57.4-36.7,102.4"/>
	</g>
	<g transform="matrix(1,0,0,1,0,0)">
		<path class="st4" d="M-201.9,1.5"/>
		<path class="st7" d="M-201.9,1.5"/>
	</g>
</g>
<g transform="matrix(0.9743700623512268,0.22495105862617493,-0.22495105862617493,0.9743700623512268,394.1244812011719,172.45376586914062)">
	<g transform="matrix(1,0,0,1,123.98699951171875,194.60800170898438)">
		<path class="st4" d="M10.4-109.1c0,0,3.7,53-6.9,91.4C-7.1,20.7-24,63.3-62.1,102c-38.1,38.7-82.4,55-119.8,60.6
			c-28.2,5.1-42-36.3-22-66.1c16.3-24.4,64.6-64.5,64.6-64.5s14-16.4,27.3-21.7c13.3-5.3,40.8-7.6,61.4-28.4
			C-32.5-36.4-27.2-59-27.2-59s10.6-40.4,11.1-54.9C3.2-119.2,10.4-109.1,10.4-109.1z"/>
		<path class="st5" d="M10.4-109.1c0,0,3.7,53-6.9,91.4C-7.1,20.7-24,63.3-62.1,102c-38.1,38.7-82.4,55-119.8,60.6
			c-28.2,5.1-42-36.3-22-66.1c16.3-24.4,64.6-64.5,64.6-64.5s14-16.4,27.3-21.7c13.3-5.3,40.8-7.6,61.4-28.4
			C-32.5-36.4-27.2-59-27.2-59s10.6-40.4,11.1-54.9C3.2-119.2,10.4-109.1,10.4-109.1z"/>
	</g>
	<g transform="matrix(1,0,0,1,169.9759979248047,193.1510009765625)">
		<path class="st3" d="M-104.9,15.6c3.8,0,6.8,3.8,6.8,8.6c0,4.7-3,8.6-6.8,8.6c-3.8,0-6.8-3.8-6.8-8.6
			C-111.7,19.5-108.6,15.6-104.9,15.6z"/>
	</g>
	<g transform="matrix(1,0,0,1,132.69500732421875,218.08399963378906)">
		<path class="st0" d="M-112.3,57.2c-0.5,0-1.1-0.1-1.7-0.8c-0.9-1-2.2-3.4-2.2-13.2c0-5.6,0.3-13,1.1-22
			c1.3-15.2,3.3-29.9,3.3-30.1l1.7,0.2c0,0.1-2,14.8-3.2,30c-0.7,8.9-1.1,16.2-1.1,21.8c0.1,8.9,1.1,11.3,1.8,12
			c0.2,0.2,0.4,0.2,0.4,0.2c2.8-0.2,4.4-8.2,6-15.8c2.2-11,4.8-23.5,12.1-26.6l0.7,1.6c-6.4,2.7-8.9,15.3-11,25.4
			c-1.9,9.5-3.5,16.9-7.6,17.3C-112.2,57.2-112.2,57.2-112.3,57.2z"/>
	</g>
	<g transform="matrix(1,0,0,1,229.08900451660156,33.15299987792969)">
		<path class="st0" d="M-94.7,52.4c0,0,4.2-24,5.5-32.8c1.3-8.9,3-23.5,0.1-22.2c-2.8,1.3-11.7,24.2-11.7,24.2l-22.7-0.1l2.1,26.2
			C-110.4,44.2-100.5,46-94.7,52.4z"/>
		<path class="st5" d="M-94.7,52.4c0,0,4.2-24,5.5-32.8c1.3-8.9,3-23.5,0.1-22.2c-2.8,1.3-11.7,24.2-11.7,24.2l-22.7-0.1l2.1,26.2
			C-110.4,44.2-100.5,46-94.7,52.4z"/>
	</g>
	<g transform="matrix(1,0,0,1,216.5469970703125,88.01300048828125)">
		<path class="st3" d="M-112.5,18.6c0,0,7.5-3.5,18.1-1.1c-11.1,1.7-15,3.2-20.9,15.8C-113.4,24.3-112.5,18.6-112.5,18.6z"/>
	</g>
	<g transform="matrix(1,0,0,1,220.22300720214844,67.8740005493164)">
		<path class="st5" d="M-103.2,11.6l-3.4,25.2"/>
	</g>
	<g transform="matrix(1,0,0,1,231.8769989013672,69.74099731445312)">
		<path class="st5" d="M-104.3,11.7l-1.1,25.1"/>
	</g>
	<g transform="matrix(1,0,0,1,224.33399963378906,81.8270034790039)">
		<path class="st5" d="M-89.6,30.5c0,0-13.3-12.6-30.6-6.4"/>
	</g>
	<g transform="matrix(1,0,0,1,179.97000122070312,168.85000610351562)">
		<path class="st3" d="M-120.2,17.1c0,0-1.2,8.1,3.5,9.3c4.7,1.1,10.3-2.1,10.9,3.9c0.7,6,1.6,14.4,6.1,19.7
			c4.5,5.3,11.2,0.6,8.7-9.7C-93.3,29.9-98,3.8-95-6.8C-100.5,1.6-111,12-120.2,17.1z"/>
	</g>
	<g transform="matrix(1,0,0,1,162.25900268554688,262.83099365234375)">
		<path class="st3" d="M-73.1,0.3c0,0-24,35.6-55.1,57.5C-136.6,42.1-97.5-9.4-73.1,0.3z"/>
	</g>
	<g transform="matrix(1,0,0,1,131.93699645996094,218.93299865722656)">
		<path class="st8" d="M-110.5-9.4c0,0-5.9,42.1-3.6,60.3c0.6,6.8,5.9,5.6,7.7-5.3c1.8-10.9,5.6-29.3,13.1-32.4"/>
	</g>
	<g transform="matrix(1,0,0,1,221.46800231933594,33.23500061035156)">
		<path class="st3" d="M-93.5,22.2l-22,5.1l-0.6-6.2L-93.5,22.2z"/>
	</g>
</g>
<g transform="matrix(0.9848077297210693,-0.1736481785774231,0.1736481785774231,0.9848077297210693,145.8243408203125,106.82415771484375)">
	<g transform="matrix(1,0,0,1,80.18299865722656,184.12100219726562)">
		<path class="st4" d="M-61.5,27.8c0,0-1.3-20.7-12.6-46.1c-5-11.4-15.5-23.6-13.9-47.9c1.6-24.2,18.2-51.4,37.7-70.3
			c19.5-18.9,0,0,0,0s-1.9-20-16-19.4c0,0-23.5,22.4-39.9,41.3c-16.4,18.9-47.1,53.2-61,101.6c-13.9,48.4,0,95.1,3,101.6
			c10,21.7,55.7,30.5,80.5,10.2C-50.5,71.7-61.5,27.8-61.5,27.8z"/>
		<path class="st9" d="M-61.5,27.8c0,0-1.3-20.7-12.6-46.1c-5-11.4-15.5-23.6-13.9-47.9c1.6-24.2,18.2-51.4,37.7-70.3
			c19.5-18.9,0,0,0,0s-1.9-20-16-19.4c0,0-23.5,22.4-39.9,41.3c-16.4,18.9-47.1,53.2-61,101.6c-13.9,48.4,0,95.1,3,101.6
			c10,21.7,55.7,30.5,80.5,10.2C-50.5,71.7-61.5,27.8-61.5,27.8z"/>
	</g>
	<g transform="matrix(1,0,0,1,83.13600158691406,104.06400299072266)">
		<path class="st3" d="M-110.3-23.8c3.2-2.7,7.7-2.6,10,0.2c2.4,2.8,1.7,7.3-1.5,9.9c-3.2,2.7-7.7,2.6-10-0.2
			C-114.1-16.6-113.5-21.1-110.3-23.8z"/>
	</g>
	<g transform="matrix(1,0,0,1,144.54800415039062,35.66999816894531)">
		<path class="st0" d="M-114.7,12c0,0,12.9-9.6,18-16.8c5.2-7.2,11.8-21.6,12.7-23.5c0.9-1.9,2.9-7.5,0.9-8.7
			c-3.7-2.2-11.1,8.6-11.1,8.6s-6.6,9.4-8.8,6.2c-2.2-3.2-0.4-9.6-0.4-9.6l1.7-6l0.7-11.5c0,0-8.5,3.3-10.1,6.4
			c-1.6,3.1-7.5,15.7-7.5,15.7l-3.7,8.9l-8.6,10.9C-120.4-8.3-116.2,0.6-114.7,12z"/>
		<path class="st5" d="M-114.7,12c0,0,12.9-9.6,18-16.8c5.2-7.2,11.8-21.6,12.7-23.5c0.9-1.9,2.9-7.5,0.9-8.7
			c-3.7-2.2-11.1,8.6-11.1,8.6s-6.6,9.4-8.8,6.2c-2.2-3.2-0.4-9.6-0.4-9.6l1.7-6l0.7-11.5c0,0-8.5,3.3-10.1,6.4
			c-1.6,3.1-7.5,15.7-7.5,15.7l-3.7,8.9l-8.6,10.9C-120.4-8.3-116.2,0.6-114.7,12z"/>
	</g>
	<g transform="matrix(1,0,0,1,114.85199737548828,80.8010025024414)">
		<path class="st3" d="M-113.1-32.9c0,0,12.1,7.2,4.4,28.5c5.1-8.1,9.7-14,9.7-14S-102.5-28.8-113.1-32.9z"/>
	</g>
	<g transform="matrix(1,0,0,1,111.26899719238281,73.78600311279297)">
		<path class="st5" d="M-116-27c0,0,16.9-0.4,20,17"/>
	</g>
	<g transform="matrix(1,0,0,1,118.19000244140625,57.64500045776367)">
		<path class="st5" d="M-97.8-28.2l-16.4,19"/>
	</g>
	<g transform="matrix(1,0,0,1,125.09100341796875,65.45099639892578)">
		<path class="st5" d="M-98.3-27l-15.5,16.7"/>
	</g>
	<g transform="matrix(1,0,0,1,81.75900268554688,166.25799560546875)">
		<path class="st3" d="M-89.2-38.6c0,0-25.5,11.3-35.3,20.7c-9.8,9.4,1.2,19.2,11.6,14.2c6.7-3.2,15.5-9.4,20.5-3.9
			c5,5.4,14.8,2.3,14.8,2.3S-90.8-29.9-89.2-38.6z"/>
	</g>
	<g transform="matrix(1,0,0,1,21.117000579833984,237.68600463867188)">
		<path class="st3" d="M-112.2-46.2c0,0-4.7,29.7,0,55.7c9.7-2.6,17-16.6,16-32.3C-97.2-38.5-106.1-46.8-112.2-46.2z"/>
	</g>
	<g transform="matrix(1,0,0,1,70.29499816894531,222.67599487304688)">
		<path class="st8" d="M-119-34.5c0,0,30.9-4.7,32.1,6.9c0.3,5-13.1,7.4-23.7,11.3c-7.7,2.9-14.6,11-14.9,18.1"/>
	</g>
</g>
<g transform="matrix(1,0,0,1,134.6699981689453,264.7139892578125)">
	<g transform="matrix(1,0,0,1,213.2969970703125,27.326000213623047)">
		<path class="st0" d="M-94.1,0c0,0-19.8-10.1-24.7-0.3c-2.3,4.8,6.3,8.3,14.5,9.4S-94.1,0-94.1,0z"/>
		<path class="st5" d="M-94.1,0c0,0-19.8-10.1-24.7-0.3c-2.3,4.8,6.3,8.3,14.5,9.4S-94.1,0-94.1,0z"/>
	</g>
	<g transform="matrix(1,0,0,1,287.5150146484375,70.9219970703125)">
		<path class="st0" d="M-108.3-13.9c0,0,15.2,13.6,10,20.7c-5.3,7.1-23.8-10-23.8-10L-108.3-13.9z"/>
		<path class="st5" d="M-108.3-13.9c0,0,15.2,13.6,10,20.7c-5.3,7.1-23.8-10-23.8-10L-108.3-13.9z"/>
	</g>
	<g transform="matrix(1,0,0,1,267.52801513671875,17.898000717163086)">
		<path class="st0" d="M-116.8,1c0,0,11.8-9.2,15.1-7.4s2,14.6,2,14.6L-116.8,1z"/>
		<path class="st5" d="M-116.8,1c0,0,11.8-9.2,15.1-7.4s2,14.6,2,14.6L-116.8,1z"/>
	</g>
	<g transform="matrix(1,0,0,1,257.9490051269531,38.1870002746582)">
		<path class="st0" d="M-146.8-5.9c0,0,27.5-27.3,58.5-7.2c0,0,19.8,13.6,7.1,46.3C-101.7,21-146.8-5.9-146.8-5.9z"/>
		<path class="st5" d="M-146.8-5.9c0,0,27.5-27.3,58.5-7.2c0,0,19.8,13.6,7.1,46.3C-101.7,21-146.8-5.9-146.8-5.9z"/>
	</g>
	<g transform="matrix(1,0,0,1,149.7760009765625,171.66700744628906)">
		<path class="st3" d="M32.3-59.6c-3.1-14-4.9-22.6-4.3-34.1c0,0,0,0,0,0c0.1-4.4,0.5-9.6,0.4-11.6c-0.6-14.4-7-23.6-19.5-30.8
			c-12.4-7.1-26.1-9.1-35.9-8c-9.7,1.1-22.6,7.7-22.5,7.8c-4.9,2.9-9.7,6.6-14.4,11c-3.7,3.5-7.3,7.1-10.8,10.6
			c-20.3,20.1-39.4,39.1-85.9,53c-4.8,1.4-9.4,3.1-13.4,4.8c-18.7,7.9-26.9,17.6-32.6,26.1c-2.2,3.4-4.2,6.9-6.1,10.3
			c-3.5,6.3-6.9,12.3-12,17.9c-2.4,2.7-5,5-7.9,7.1c-8.4,6.2-15.3,16.2-19.3,28.1c-4.3,12.6-5.2,26.2-2.5,39.4
			c3,15.3,10.8,29.3,22.5,40.7c13.6,13.2,32.3,22.8,55.5,28.5c10.7,2.6,23.2,4,36.4,4c13.6,0,27.7-1.4,41-4.2
			c15.1-3.2,28.7-8.1,40.4-14.5c13.2-7.2,23.8-16.2,31.6-26.8c1.3-1.7,2.5-3.5,3.6-5.4c4.3-7.1,8.2-14.6,11.6-22.8
			C-9.2,65-7.1,59.1-5,53.4c4.7-13.2,8.4-23.6,16.4-31.6C26.4,6.7,41.9-11.8,36-42C34.6-48.8,33.4-54.5,32.3-59.6z"/>
	</g>
	<g transform="matrix(1,0,0,1,57.65599822998047,142.65199279785156)">
		<path class="st8" d="M-131,25.8c11.8-9.3,16.5-40.7,46.8-51.6"/>
	</g>
	<g transform="matrix(1,0,0,1,141.49200439453125,152.15499877929688)">
		<path class="st8" d="M-6.7-115.4c0,0-26.7,6.3-41.4,34.8C-62.8-52-71.9-48.6-93.6-40.3c-21.7,8.4-66.1,16.7-65.6,75.8
			c0.5,59.1-16.7,76.3-49.3,79.9"/>
	</g>
	<g transform="matrix(1,0,0,1,208.47000122070312,83.25299835205078)">
		<path class="st8" d="M-85.2-29.3c0,0-14.5,9.5-19,30.3c-4.5,20.8-25.8,28.3-25.8,28.3"/>
	</g>
	<g transform="matrix(1,0,0,1,192.29100036621094,169.23899841308594)">
		<path class="st8" d="M-34-117.8c0,0-19.9,13.6-23.5,38.5c-3.6,24.9-14.3,26.7-26.7,33.9c-12.4,7.2-51.8,28.3-45.7,93.7
			c2.3,35.3-18.6,62.7-51.4,69.5"/>
	</g>
	<g transform="matrix(1,0,0,1,237.88499450683594,257.14801025390625)">
		<path class="st8" d="M-100.8-12.7c0,0-6.3,17-13.6,25.3"/>
	</g>
</g>
</svg>
